<svg data-v-423bf9ae="" xmlns="http://www.w3.org/2000/svg" viewBox="0 0 361.21030042918454 163" class="iconAbove"><!----><!----><!----><g data-v-423bf9ae="" id="3df11692-7aa1-4c28-8593-b0d984d2692c" fill="#0E8A4F" transform="matrix(6.5922746658325195,0,0,6.5922746658325195,-2.4978556632995605,66.74249267578125)"><path d="M0.44 8.09L0.38 5.89L7.70 5.89L7.47 8.18L6.97 8.11L6.79 6.38L4.48 6.38L4.48 13.75L5.71 13.97L5.63 14.40L2.24 14.40L2.28 14L3.45 13.74L3.45 6.38L1.23 6.38L0.92 8.16L0.44 8.09ZM9.37 10.93L9.37 10.93L11.77 10.77L11.77 10.77Q11.82 10.64 11.82 10.12L11.82 10.12L11.82 10.12Q11.82 9.60 11.53 9.24L11.53 9.24L11.53 9.24Q11.24 8.87 10.71 8.87L10.71 8.87L10.71 8.87Q10.17 8.87 9.79 9.40L9.79 9.40L9.79 9.40Q9.40 9.94 9.37 10.93ZM12.83 13.38L12.96 13.69L12.96 13.69Q12.17 14.60 10.85 14.60L10.85 14.60L10.85 14.60Q9.84 14.60 9.12 13.82L9.12 13.82L9.12 13.82Q8.39 13.04 8.39 11.53L8.39 11.53L8.39 11.53Q8.39 10.79 8.63 10.17L8.63 10.17L8.63 10.17Q8.86 9.55 9.24 9.16L9.24 9.16L9.24 9.16Q10.05 8.34 11.07 8.34L11.07 8.34L11.07 8.34Q11.86 8.34 12.32 8.86L12.32 8.86L12.32 8.86Q12.78 9.38 12.78 10.42L12.78 10.42L12.78 10.42Q12.78 10.86 12.67 11.31L12.67 11.31L9.36 11.35L9.36 11.35Q9.39 12.37 9.86 13.12L9.86 13.12L9.86 13.12Q10.34 13.86 11.23 13.86L11.23 13.86L11.23 13.86Q12.13 13.86 12.83 13.38L12.83 13.38ZM17.34 14.40L13.82 14.40L13.88 14.04L14.94 13.81L14.94 9.22L13.84 8.96L13.90 8.60L15.67 8.40L15.78 8.52L15.69 10.19L15.78 10.19L15.78 10.19Q16.03 9.31 16.48 8.79L16.48 8.79L16.48 8.79Q16.93 8.28 17.35 8.28L17.35 8.28L17.35 8.28Q17.77 8.28 17.98 8.47L17.98 8.47L17.98 8.47Q18.18 8.66 18.18 8.98L18.18 8.98L18.18 8.98Q18.18 9.29 17.76 9.58L17.76 9.58L17.76 9.58Q17.41 9.23 17.01 9.23L17.01 9.23L17.01 9.23Q16.62 9.23 16.28 9.80L16.28 9.80L16.28 9.80Q15.94 10.38 15.83 11.22L15.83 11.22L15.83 13.79L17.40 13.98L17.34 14.40ZM21.81 14.40L18.90 14.40L18.96 14.03L20.00 13.81L20.00 9.25L18.93 8.98L18.97 8.62L20.81 8.42L20.89 8.51L20.82 9.42L20.87 9.42L20.87 9.42Q21.24 8.97 21.80 8.64L21.80 8.64L21.80 8.64Q22.37 8.32 22.94 8.32L22.94 8.32L22.94 8.32Q23.51 8.32 23.91 8.61L23.91 8.61L23.91 8.61Q24.30 8.90 24.42 9.45L24.42 9.45L24.50 9.45L24.50 9.45Q24.86 9.00 25.41 8.67L25.41 8.67L25.41 8.67Q25.96 8.35 26.56 8.35L26.56 8.35L26.56 8.35Q27.42 8.35 27.79 8.86L27.79 8.86L27.79 8.86Q28.17 9.37 28.17 10.32L28.17 10.32L28.17 13.80L29.14 13.99L29.05 14.38L26.34 14.38L26.38 14.03L27.27 13.81L27.27 10.48L27.27 10.48Q27.27 9.80 26.96 9.43L26.96 9.43L26.96 9.43Q26.65 9.06 26.07 9.06L26.07 9.06L26.07 9.06Q25.31 9.06 24.53 9.88L24.53 9.88L24.53 13.81L25.48 14L25.43 14.40L22.71 14.40L22.76 14.03L23.67 13.81L23.67 10.48L23.67 10.48Q23.67 9.84 23.35 9.45L23.35 9.45L23.35 9.45Q23.04 9.06 22.53 9.06L22.53 9.06L22.53 9.06Q21.53 9.06 20.90 9.84L20.90 9.84L20.90 13.81L21.88 14L21.81 14.40ZM32.81 14.40L29.78 14.40L29.86 14.02L30.89 13.80L30.89 9.12L29.85 8.83L29.91 8.48L31.68 8.33L31.79 8.44L31.79 13.80L32.88 14.01L32.81 14.40ZM31.26 6.92L31.26 6.92L31.26 6.92Q30.99 6.92 30.84 6.72L30.84 6.72L30.84 6.72Q30.69 6.52 30.69 6.20L30.69 6.20L30.69 6.20Q30.69 5.89 30.84 5.69L30.84 5.69L30.84 5.69Q31.00 5.50 31.26 5.50L31.26 5.50L31.26 5.50Q31.52 5.50 31.68 5.69L31.68 5.69L31.68 5.69Q31.85 5.89 31.85 6.21L31.85 6.21L31.85 6.21Q31.85 6.53 31.69 6.73L31.69 6.73L31.69 6.73Q31.53 6.92 31.26 6.92ZM36.48 14.40L33.56 14.40L33.62 14.04L34.67 13.81L34.67 9.24L33.61 8.97L33.65 8.61L35.46 8.41L35.55 8.50L35.48 9.41L35.53 9.41L35.53 9.41Q35.88 8.98 36.46 8.65L36.46 8.65L36.46 8.65Q37.04 8.31 37.71 8.31L37.71 8.31L37.71 8.31Q38.39 8.31 38.81 8.81L38.81 8.81L38.81 8.81Q39.24 9.31 39.24 10.29L39.24 10.29L39.24 13.81L40.20 14L40.15 14.40L37.33 14.40L37.39 14.04L38.34 13.81L38.34 10.51L38.34 10.51Q38.34 9.78 38.02 9.42L38.02 9.42L38.02 9.42Q37.69 9.06 37.20 9.06L37.20 9.06L37.20 9.06Q36.70 9.06 36.33 9.23L36.33 9.23L36.33 9.23Q35.96 9.41 35.55 9.82L35.55 9.82L35.55 13.81L36.55 14L36.48 14.40ZM42.25 9.92L42.25 9.92L42.25 9.92Q42.25 10.63 42.43 11.39L42.43 11.39L42.43 11.39Q42.62 12.14 42.97 12.73L42.97 12.73L42.97 12.73Q43.32 13.32 43.89 13.66L43.89 13.66L43.89 13.66Q44.46 14 45.12 14L45.12 14L45.12 14Q45.77 14 46.25 13.79L46.25 13.79L46.25 13.79Q47.11 13.41 47.53 12.49L47.53 12.49L47.53 12.49Q47.95 11.56 47.95 10.44L47.95 10.44L47.95 10.44Q47.95 9.31 47.63 8.36L47.63 8.36L47.63 8.36Q47.31 7.41 46.63 6.81L46.63 6.81L46.63 6.81Q45.94 6.21 45.00 6.21L45.00 6.21L45.00 6.21Q43.32 6.21 42.63 7.74L42.63 7.74L42.63 7.74Q42.25 8.60 42.25 9.92ZM42.89 13.98L42.89 13.98L42.89 13.98Q42.03 13.38 41.57 12.38L41.57 12.38L41.57 12.38Q41.10 11.38 41.10 10.11L41.10 10.11L41.10 10.11Q41.10 8.85 41.61 7.83L41.61 7.83L41.61 7.83Q42.12 6.82 43.09 6.25L43.09 6.25L43.09 6.25Q44.06 5.69 45.34 5.69L45.34 5.69L45.34 5.69Q46.22 5.69 46.94 6.04L46.94 6.04L46.94 6.04Q47.65 6.38 48.12 6.99L48.12 6.99L48.12 6.99Q49.09 8.25 49.09 10.13L49.09 10.13L49.09 10.13Q49.09 11.54 48.38 12.70L48.38 12.70L48.38 12.70Q47.23 14.58 44.72 14.58L44.72 14.58L44.72 14.58Q43.76 14.58 42.89 13.98ZM49.99 13.58L49.99 13.58L50.14 11.70L50.65 11.77L50.88 13.16L50.88 13.16Q51.09 13.54 51.55 13.77L51.55 13.77L51.55 13.77Q52.00 14.01 52.59 14.01L52.59 14.01L52.59 14.01Q53.18 14.01 53.67 13.62L53.67 13.62L53.67 13.62Q54.16 13.23 54.16 12.51L54.16 12.51L54.16 12.51Q54.16 11.79 53.38 11.21L53.38 11.21L53.38 11.21Q53.03 10.96 52.62 10.71L52.62 10.71L51.78 10.20L51.78 10.20Q51.37 9.93 51.02 9.63L51.02 9.63L51.02 9.63Q50.24 8.96 50.24 7.98L50.24 7.98L50.24 7.98Q50.24 7.29 50.61 6.75L50.61 6.75L50.61 6.75Q51.32 5.71 52.62 5.71L52.62 5.71L52.62 5.71Q53.92 5.71 54.67 6.43L54.67 6.43L54.48 8.46L53.98 8.39L53.81 6.90L53.81 6.90Q53.66 6.63 53.28 6.41L53.28 6.41L53.28 6.41Q52.90 6.19 52.41 6.19L52.41 6.19L52.41 6.19Q51.93 6.19 51.55 6.55L51.55 6.55L51.55 6.55Q51.17 6.91 51.17 7.44L51.17 7.44L51.17 7.44Q51.17 7.97 51.39 8.33L51.39 8.33L51.39 8.33Q51.61 8.69 51.96 8.95L51.96 8.95L51.96 8.95Q52.32 9.21 52.74 9.47L52.74 9.47L53.59 9.98L53.59 9.98Q54.02 10.25 54.37 10.54L54.37 10.54L54.37 10.54Q55.17 11.20 55.17 12.20L55.17 12.20L55.17 12.20Q55.17 13.19 54.33 13.88L54.33 13.88L54.33 13.88Q53.50 14.57 52.27 14.57L52.27 14.57L52.27 14.57Q51.56 14.57 50.95 14.29L50.95 14.29L50.95 14.29Q50.34 14.01 49.99 13.58Z"></path></g><defs data-v-423bf9ae=""><linearGradient data-v-423bf9ae="" gradientTransform="rotate(25)" id="9f033fc2-711e-42d9-9c52-041753ea9cc3" x1="0%" y1="0%" x2="100%" y2="0%"><stop data-v-423bf9ae="" offset="0%" style="stop-color: rgb(44, 44, 44); stop-opacity: 1;"></stop><stop data-v-423bf9ae="" offset="100%" style="stop-color: rgb(14, 138, 79); stop-opacity: 1;"></stop></linearGradient></defs><g data-v-423bf9ae="" id="6a96ddb9-9e8b-44dc-9f9b-6db3e082610c" transform="matrix(1.208053708076477,0,0,1.208053708076477,367.9475402832031,-264.7303771972656)" stroke="none" fill="url(#9f033fc2-711e-42d9-9c52-041753ea9cc3)"><switch><g><path d="M-117.7 257c0 20.5-16.7 37.3-37.3 37.3s-37.3-16.7-37.3-37.3c0-1 .8-1.9 1.9-1.9s1.9.8 1.9 1.9c0 18.5 15 33.5 33.5 33.5s33.5-15 33.5-33.5c0-8.7-3.3-16.9-9.3-23.2-.7-.8-.7-1.9.1-2.7.8-.7 2-.7 2.7.1 6.6 6.9 10.3 16.1 10.3 25.8zm-58.5 0c0-1 .8-1.9 1.9-1.9h13.6c0-.1 0-.1.1-.2 0-.1.1-.3.2-.4.1-.2.2-.4.3-.7.1-.1.2-.3.3-.4.2-.2.3-.4.5-.6.1-.1.1-.1.1-.2 1.1-1.1 2.7-1.8 4.3-1.8h.6c.1 0 .2 0 .4.1h.2c.1 0 .3.1.4.1h.2c.1 0 .3.1.4.1 0 0 .1 0 .1.1.1.1.3.1.4.2l11.9-11.9c.7-.7 1.9-.7 2.7 0 .7.7.7 1.9 0 2.7l-11.9 11.9c.4.8.7 1.8.7 2.7 0 3.3-2.7 6.1-6.1 6.1-.4 0-.8 0-1.1-.1h-.1c-.3-.1-.7-.2-1-.3-.1 0-.1 0-.2-.1-.3-.1-.6-.3-.8-.4-.1-.1-.2-.1-.3-.2-.2-.2-.5-.3-.7-.5-.1 0-.1-.1-.2-.1-.1-.1-.1-.1-.1-.2-.2-.2-.3-.4-.5-.6-.1-.1-.2-.3-.3-.4-.1-.2-.2-.4-.3-.7-.1-.1-.1-.3-.2-.4 0-.1 0-.1-.1-.2h-13.6c-1 .2-1.8-.7-1.8-1.7zm21.2-2.3c-1.3 0-2.3 1-2.3 2.3 0 1.2 1 2.3 2.2 2.3.6 0 1.2-.2 1.6-.7.4-.4.7-1 .7-1.6 0-.6-.2-1.2-.7-1.6-.3-.3-.7-.5-1.2-.6h-.2c0-.1 0-.1-.1-.1zm-2.1-31.1h.1c1-.1 1.8-1 1.8-2-.1-1-1-1.8-2-1.8-1 .1-1.8 1-1.8 2 .1 1 .9 1.8 1.9 1.8zm-7.5 1.2c.2 0 .3 0 .5-.1 1-.3 1.6-1.3 1.3-2.3-.3-1-1.3-1.6-2.3-1.3-1 .3-1.6 1.3-1.3 2.3.2.9 1 1.4 1.8 1.4zm21.8 1c.2.1.5.1.7.1.8 0 1.5-.5 1.8-1.2.4-1-.1-2.1-1.1-2.5-1-.4-2.1.1-2.4 1.1-.4 1 0 2.1 1 2.5zm6.4 3.3c.3.2.7.3 1.1.3.6 0 1.2-.3 1.6-.8.6-.9.3-2-.5-2.6-.9-.6-2-.3-2.6.5-.7.9-.5 2.1.4 2.6zm-13.4-5.2h.3c.9 0 1.7-.7 1.9-1.6.2-1-.5-2-1.6-2.2-1-.2-2 .5-2.2 1.6-.1 1.1.6 2 1.6 2.2zm-40.2 27.3h.4c.9 0 1.7-.6 1.8-1.5.2-1-.4-2-1.4-2.2-1-.2-2 .4-2.2 1.4-.2 1.1.4 2.1 1.4 2.3zm2.1-7.3c.3.1.5.2.8.2.7 0 1.4-.4 1.7-1.1.4-.9 0-2.1-.9-2.5-.9-.4-2.1 0-2.5.9-.5.9-.1 2 .9 2.5zm9.9-11.9c.4 0 .9-.2 1.2-.5.8-.7.9-1.9.2-2.7-.7-.8-1.9-.9-2.7-.2-.8.7-.9 1.9-.2 2.7.5.4 1 .7 1.5.7zm-6.3 5.1c.3.3.7.4 1.1.4.6 0 1.1-.3 1.5-.7.6-.8.5-2-.4-2.7-.8-.6-2-.5-2.6.4-.6.8-.5 2 .4 2.6zm12.6-9.4c.3 0 .6-.1.9-.2.9-.5 1.3-1.6.8-2.6-.5-.9-1.6-1.3-2.6-.8-.9.5-1.3 1.6-.8 2.6.4.6 1.1 1 1.7 1z"></path></g></switch></g><!----></svg>