<svg data-v-423bf9ae="" xmlns="http://www.w3.org/2000/svg" viewBox="0 0 381.26348228043145 163" class="iconAbove"><!----><!----><!----><g data-v-423bf9ae="" id="ee90dcdd-fd6c-43bc-9d50-b67f21e9c468" fill="white" transform="matrix(5.916795253753662,0,0,5.916795253753662,-1.6641013622283936,85.78119659423828)"><path d="M4.03 12.88L5.31 12.88L5.31 3.85L9.06 3.85L9.06 3.08L0.28 3.08L0.28 3.85L4.03 3.85L4.03 12.88ZM8.97 9.69L14.29 9.69L14.29 9.39L14.29 9.39Q14.29 8.46 14.03 7.77L14.03 7.77L14.03 7.77Q13.76 7.08 13.31 6.64L13.31 6.64L13.31 6.64Q12.85 6.19 12.25 5.96L12.25 5.96L12.25 5.96Q11.65 5.74 10.98 5.74L10.98 5.74L10.98 5.74Q10.26 5.74 9.66 5.99L9.66 5.99L9.66 5.99Q9.06 6.23 8.61 6.70L8.61 6.70L8.61 6.70Q8.16 7.17 7.91 7.83L7.91 7.83L7.91 7.83Q7.66 8.50 7.66 9.34L7.66 9.34L7.66 9.34Q7.66 10.04 7.88 10.70L7.88 10.70L7.88 10.70Q8.09 11.37 8.53 11.89L8.53 11.89L8.53 11.89Q8.97 12.42 9.65 12.73L9.65 12.73L9.65 12.73Q10.33 13.05 11.26 13.05L11.26 13.05L11.26 13.05Q12.15 13.05 12.91 12.73L12.91 12.73L12.91 12.73Q13.66 12.42 14.22 11.83L14.22 11.83L13.78 11.38L13.78 11.38Q13.48 11.63 13.22 11.84L13.22 11.84L13.22 11.84Q12.96 12.05 12.70 12.19L12.70 12.19L12.70 12.19Q12.43 12.33 12.15 12.41L12.15 12.41L12.15 12.41Q11.86 12.49 11.51 12.49L11.51 12.49L11.51 12.49Q11.12 12.49 10.68 12.37L10.68 12.37L10.68 12.37Q10.23 12.25 9.86 11.94L9.86 11.94L9.86 11.94Q9.48 11.63 9.23 11.09L9.23 11.09L9.23 11.09Q8.97 10.54 8.97 9.69L8.97 9.69ZM13.08 9.13L8.97 9.13L8.97 9.13Q8.97 8.57 9.09 8.04L9.09 8.04L9.09 8.04Q9.21 7.52 9.46 7.11L9.46 7.11L9.46 7.11Q9.70 6.71 10.08 6.46L10.08 6.46L10.08 6.46Q10.46 6.22 10.98 6.22L10.98 6.22L10.98 6.22Q11.97 6.22 12.52 6.99L12.52 6.99L12.52 6.99Q13.08 7.77 13.08 9.13L13.08 9.13ZM17.30 5.88L16.11 5.88L16.11 12.88L17.30 12.88L17.30 8.65L17.30 8.65Q17.30 8.08 17.44 7.68L17.44 7.68L17.44 7.68Q17.57 7.28 17.78 7.03L17.78 7.03L17.78 7.03Q17.99 6.78 18.24 6.66L18.24 6.66L18.24 6.66Q18.49 6.55 18.73 6.55L18.73 6.55L18.73 6.55Q19.05 6.55 19.33 6.76L19.33 6.76L19.33 6.76Q19.60 6.97 19.73 7.15L19.73 7.15L20.20 6.29L20.20 6.29Q20.08 6.12 19.90 6.01L19.90 6.01L19.90 6.01Q19.73 5.89 19.55 5.83L19.55 5.83L19.55 5.83Q19.38 5.77 19.23 5.75L19.23 5.75L19.23 5.75Q19.08 5.73 19.01 5.73L19.01 5.73L19.01 5.73Q18.42 5.73 18.03 6.05L18.03 6.05L18.03 6.05Q17.64 6.37 17.39 7.00L17.39 7.00L17.30 7.00L17.30 5.88ZM21.46 12.88L22.65 12.88L22.65 8.89L22.65 8.89Q22.65 8.64 22.69 8.23L22.69 8.23L22.69 8.23Q22.74 7.81 22.91 7.41L22.91 7.41L22.91 7.41Q23.09 7.01 23.45 6.73L23.45 6.73L23.45 6.73Q23.81 6.44 24.47 6.44L24.47 6.44L24.47 6.44Q24.95 6.44 25.21 6.65L25.21 6.65L25.21 6.65Q25.47 6.86 25.59 7.17L25.59 7.17L25.59 7.17Q25.72 7.48 25.74 7.81L25.74 7.81L25.74 7.81Q25.76 8.15 25.76 8.40L25.76 8.40L25.76 12.88L26.95 12.88L26.95 8.89L26.95 8.89Q26.95 8.58 27.01 8.16L27.01 8.16L27.01 8.16Q27.06 7.73 27.24 7.35L27.24 7.35L27.24 7.35Q27.43 6.97 27.77 6.71L27.77 6.71L27.77 6.71Q28.11 6.44 28.70 6.44L28.70 6.44L28.70 6.44Q29.13 6.44 29.40 6.57L29.40 6.57L29.40 6.57Q29.67 6.69 29.81 6.94L29.81 6.94L29.81 6.94Q29.96 7.20 30.01 7.56L30.01 7.56L30.01 7.56Q30.06 7.92 30.06 8.40L30.06 8.40L30.06 12.88L31.25 12.88L31.25 7.99L31.25 7.99Q31.25 7.67 31.18 7.27L31.18 7.27L31.18 7.27Q31.11 6.87 30.88 6.53L30.88 6.53L30.88 6.53Q30.65 6.19 30.20 5.96L30.20 5.96L30.20 5.96Q29.76 5.73 29.04 5.73L29.04 5.73L29.04 5.73Q28.83 5.73 28.55 5.77L28.55 5.77L28.55 5.77Q28.27 5.81 27.96 5.95L27.96 5.95L27.96 5.95Q27.65 6.09 27.36 6.36L27.36 6.36L27.36 6.36Q27.08 6.62 26.87 7.06L26.87 7.06L26.77 7.06L26.77 7.06Q26.68 6.83 26.53 6.60L26.53 6.60L26.53 6.60Q26.38 6.37 26.14 6.17L26.14 6.17L26.14 6.17Q25.90 5.98 25.57 5.85L25.57 5.85L25.57 5.85Q25.24 5.73 24.78 5.73L24.78 5.73L24.78 5.73Q24.57 5.73 24.28 5.78L24.28 5.78L24.28 5.78Q23.98 5.82 23.69 5.96L23.69 5.96L23.69 5.96Q23.39 6.10 23.13 6.36L23.13 6.36L23.13 6.36Q22.88 6.61 22.71 7.01L22.71 7.01L22.65 7.01L22.65 5.88L21.46 5.88L21.46 12.88ZM35.13 5.88L33.94 5.88L33.94 12.88L35.13 12.88L35.13 5.88ZM33.77 3.67L33.77 3.67L33.77 3.67Q33.77 3.98 33.99 4.20L33.99 4.20L33.99 4.20Q34.22 4.42 34.52 4.42L34.52 4.42L34.52 4.42Q34.83 4.42 35.06 4.20L35.06 4.20L35.06 4.20Q35.28 3.98 35.28 3.67L35.28 3.67L35.28 3.67Q35.28 3.36 35.06 3.14L35.06 3.14L35.06 3.14Q34.83 2.91 34.52 2.91L34.52 2.91L34.52 2.91Q34.22 2.91 33.99 3.14L33.99 3.14L33.99 3.14Q33.77 3.36 33.77 3.67ZM42.46 12.88L43.65 12.88L43.65 8.34L43.65 8.34Q43.65 8.09 43.61 7.65L43.61 7.65L43.61 7.65Q43.57 7.21 43.34 6.78L43.34 6.78L43.34 6.78Q43.11 6.36 42.60 6.04L42.60 6.04L42.60 6.04Q42.10 5.73 41.17 5.73L41.17 5.73L41.17 5.73Q40.77 5.71 40.26 5.89L40.26 5.89L40.26 5.89Q39.76 6.06 39.27 6.55L39.27 6.55L39.05 6.78L38.99 6.78L38.99 5.88L37.80 5.88L37.80 12.88L38.99 12.88L38.99 8.55L38.99 8.55Q38.99 8.01 39.14 7.62L39.14 7.62L39.14 7.62Q39.30 7.22 39.56 6.96L39.56 6.96L39.56 6.96Q39.83 6.69 40.17 6.57L40.17 6.57L40.17 6.57Q40.52 6.44 40.88 6.44L40.88 6.44L40.88 6.44Q41.47 6.44 41.79 6.67L41.79 6.67L41.79 6.67Q42.11 6.90 42.26 7.21L42.26 7.21L42.26 7.21Q42.41 7.52 42.43 7.83L42.43 7.83L42.43 7.83Q42.46 8.13 42.46 8.27L42.46 8.27L42.46 12.88ZM45.51 7.98L45.51 7.98L45.51 7.98Q45.51 8.76 45.81 9.65L45.81 9.65L45.81 9.65Q46.12 10.54 46.76 11.30L46.76 11.30L46.76 11.30Q47.40 12.05 48.40 12.55L48.40 12.55L48.40 12.55Q49.39 13.05 50.78 13.05L50.78 13.05L50.78 13.05Q51.72 13.05 52.48 12.82L52.48 12.82L52.48 12.82Q53.24 12.59 53.85 12.19L53.85 12.19L53.85 12.19Q54.46 11.80 54.91 11.29L54.91 11.29L54.91 11.29Q55.36 10.78 55.64 10.21L55.64 10.21L55.64 10.21Q55.93 9.65 56.08 9.07L56.08 9.07L56.08 9.07Q56.22 8.50 56.22 7.98L56.22 7.98L56.22 7.98Q56.22 7.20 55.90 6.31L55.90 6.31L55.90 6.31Q55.58 5.42 54.91 4.66L54.91 4.66L54.91 4.66Q54.24 3.91 53.21 3.41L53.21 3.41L53.21 3.41Q52.18 2.91 50.78 2.91L50.78 2.91L50.78 2.91Q49.39 2.91 48.40 3.40L48.40 3.40L48.40 3.40Q47.40 3.89 46.76 4.64L46.76 4.64L46.76 4.64Q46.12 5.39 45.81 6.29L45.81 6.29L45.81 6.29Q45.51 7.18 45.51 7.98ZM46.89 7.98L46.89 7.98L46.89 7.98Q46.89 7.00 47.19 6.18L47.19 6.18L47.19 6.18Q47.49 5.36 48.01 4.77L48.01 4.77L48.01 4.77Q48.54 4.19 49.25 3.86L49.25 3.86L49.25 3.86Q49.97 3.53 50.81 3.53L50.81 3.53L50.81 3.53Q51.63 3.53 52.37 3.86L52.37 3.86L52.37 3.86Q53.10 4.19 53.65 4.77L53.65 4.77L53.65 4.77Q54.21 5.36 54.53 6.18L54.53 6.18L54.53 6.18Q54.85 7.00 54.85 7.98L54.85 7.98L54.85 7.98Q54.85 8.96 54.53 9.78L54.53 9.78L54.53 9.78Q54.21 10.60 53.65 11.19L53.65 11.19L53.65 11.19Q53.10 11.77 52.37 12.10L52.37 12.10L52.37 12.10Q51.63 12.43 50.81 12.43L50.81 12.43L50.81 12.43Q49.97 12.43 49.25 12.10L49.25 12.10L49.25 12.10Q48.54 11.77 48.01 11.19L48.01 11.19L48.01 11.19Q47.49 10.60 47.19 9.78L47.19 9.78L47.19 9.78Q46.89 8.96 46.89 7.98ZM58.39 10.40L57.44 10.40L57.44 10.40Q57.47 11.00 57.76 11.49L57.76 11.49L57.76 11.49Q58.04 11.98 58.54 12.33L58.54 12.33L58.54 12.33Q59.04 12.67 59.71 12.86L59.71 12.86L59.71 12.86Q60.38 13.05 61.18 13.05L61.18 13.05L61.18 13.05Q61.99 13.05 62.64 12.85L62.64 12.85L62.64 12.85Q63.29 12.66 63.76 12.29L63.76 12.29L63.76 12.29Q64.22 11.93 64.47 11.41L64.47 11.41L64.47 11.41Q64.72 10.89 64.72 10.26L64.72 10.26L64.72 10.26Q64.72 9.39 64.29 8.84L64.29 8.84L64.29 8.84Q63.85 8.29 63.20 7.92L63.20 7.92L63.20 7.92Q62.55 7.55 61.79 7.29L61.79 7.29L61.79 7.29Q61.03 7.04 60.37 6.76L60.37 6.76L60.37 6.76Q59.72 6.48 59.29 6.12L59.29 6.12L59.29 6.12Q58.86 5.75 58.86 5.15L58.86 5.15L58.86 5.15Q58.86 4.82 59.00 4.52L59.00 4.52L59.00 4.52Q59.15 4.23 59.44 4.01L59.44 4.01L59.44 4.01Q59.72 3.79 60.14 3.66L60.14 3.66L60.14 3.66Q60.56 3.53 61.11 3.53L61.11 3.53L61.11 3.53Q62.02 3.53 62.66 3.91L62.66 3.91L62.66 3.91Q63.29 4.30 63.41 5.12L63.41 5.12L64.36 5.12L64.36 5.12Q64.27 4.61 63.98 4.19L63.98 4.19L63.98 4.19Q63.69 3.78 63.24 3.49L63.24 3.49L63.24 3.49Q62.79 3.21 62.22 3.06L62.22 3.06L62.22 3.06Q61.66 2.91 61.04 2.91L61.04 2.91L61.04 2.91Q60.40 2.91 59.81 3.08L59.81 3.08L59.81 3.08Q59.23 3.25 58.79 3.57L58.79 3.57L58.79 3.57Q58.35 3.89 58.09 4.38L58.09 4.38L58.09 4.38Q57.83 4.87 57.83 5.50L57.83 5.50L57.83 5.50Q57.83 6.33 58.25 6.83L58.25 6.83L58.25 6.83Q58.67 7.34 59.31 7.67L59.31 7.67L59.31 7.67Q59.95 8.01 60.69 8.25L60.69 8.25L60.69 8.25Q61.43 8.48 62.07 8.79L62.07 8.79L62.07 8.79Q62.71 9.09 63.13 9.52L63.13 9.52L63.13 9.52Q63.55 9.95 63.55 10.68L63.55 10.68L63.55 10.68Q63.55 11.59 62.88 12.01L62.88 12.01L62.88 12.01Q62.22 12.43 61.11 12.43L61.11 12.43L61.11 12.43Q60.23 12.43 59.70 12.20L59.70 12.20L59.70 12.20Q59.16 11.97 58.88 11.65L58.88 11.65L58.88 11.65Q58.60 11.33 58.51 10.98L58.51 10.98L58.51 10.98Q58.41 10.64 58.39 10.40L58.39 10.40Z"></path></g><!----><g data-v-423bf9ae="" id="9ba8284e-9f2d-40c5-8dfd-5d075cddeae1" transform="matrix(1.208053708076477,0,0,1.208053708076477,377.9475402832031,-264.7303771972656)" stroke="none" fill="white"><switch><g><path d="M-117.7 257c0 20.5-16.7 37.3-37.3 37.3s-37.3-16.7-37.3-37.3c0-1 .8-1.9 1.9-1.9s1.9.8 1.9 1.9c0 18.5 15 33.5 33.5 33.5s33.5-15 33.5-33.5c0-8.7-3.3-16.9-9.3-23.2-.7-.8-.7-1.9.1-2.7.8-.7 2-.7 2.7.1 6.6 6.9 10.3 16.1 10.3 25.8zm-58.5 0c0-1 .8-1.9 1.9-1.9h13.6c0-.1 0-.1.1-.2 0-.1.1-.3.2-.4.1-.2.2-.4.3-.7.1-.1.2-.3.3-.4.2-.2.3-.4.5-.6.1-.1.1-.1.1-.2 1.1-1.1 2.7-1.8 4.3-1.8h.6c.1 0 .2 0 .4.1h.2c.1 0 .3.1.4.1h.2c.1 0 .3.1.4.1 0 0 .1 0 .1.1.1.1.3.1.4.2l11.9-11.9c.7-.7 1.9-.7 2.7 0 .7.7.7 1.9 0 2.7l-11.9 11.9c.4.8.7 1.8.7 2.7 0 3.3-2.7 6.1-6.1 6.1-.4 0-.8 0-1.1-.1h-.1c-.3-.1-.7-.2-1-.3-.1 0-.1 0-.2-.1-.3-.1-.6-.3-.8-.4-.1-.1-.2-.1-.3-.2-.2-.2-.5-.3-.7-.5-.1 0-.1-.1-.2-.1-.1-.1-.1-.1-.1-.2-.2-.2-.3-.4-.5-.6-.1-.1-.2-.3-.3-.4-.1-.2-.2-.4-.3-.7-.1-.1-.1-.3-.2-.4 0-.1 0-.1-.1-.2h-13.6c-1 .2-1.8-.7-1.8-1.7zm21.2-2.3c-1.3 0-2.3 1-2.3 2.3 0 1.2 1 2.3 2.2 2.3.6 0 1.2-.2 1.6-.7.4-.4.7-1 .7-1.6 0-.6-.2-1.2-.7-1.6-.3-.3-.7-.5-1.2-.6h-.2c0-.1 0-.1-.1-.1zm-2.1-31.1h.1c1-.1 1.8-1 1.8-2-.1-1-1-1.8-2-1.8-1 .1-1.8 1-1.8 2 .1 1 .9 1.8 1.9 1.8zm-7.5 1.2c.2 0 .3 0 .5-.1 1-.3 1.6-1.3 1.3-2.3-.3-1-1.3-1.6-2.3-1.3-1 .3-1.6 1.3-1.3 2.3.2.9 1 1.4 1.8 1.4zm21.8 1c.2.1.5.1.7.1.8 0 1.5-.5 1.8-1.2.4-1-.1-2.1-1.1-2.5-1-.4-2.1.1-2.4 1.1-.4 1 0 2.1 1 2.5zm6.4 3.3c.3.2.7.3 1.1.3.6 0 1.2-.3 1.6-.8.6-.9.3-2-.5-2.6-.9-.6-2-.3-2.6.5-.7.9-.5 2.1.4 2.6zm-13.4-5.2h.3c.9 0 1.7-.7 1.9-1.6.2-1-.5-2-1.6-2.2-1-.2-2 .5-2.2 1.6-.1 1.1.6 2 1.6 2.2zm-40.2 27.3h.4c.9 0 1.7-.6 1.8-1.5.2-1-.4-2-1.4-2.2-1-.2-2 .4-2.2 1.4-.2 1.1.4 2.1 1.4 2.3zm2.1-7.3c.3.1.5.2.8.2.7 0 1.4-.4 1.7-1.1.4-.9 0-2.1-.9-2.5-.9-.4-2.1 0-2.5.9-.5.9-.1 2 .9 2.5zm9.9-11.9c.4 0 .9-.2 1.2-.5.8-.7.9-1.9.2-2.7-.7-.8-1.9-.9-2.7-.2-.8.7-.9 1.9-.2 2.7.5.4 1 .7 1.5.7zm-6.3 5.1c.3.3.7.4 1.1.4.6 0 1.1-.3 1.5-.7.6-.8.5-2-.4-2.7-.8-.6-2-.5-2.6.4-.6.8-.5 2 .4 2.6zm12.6-9.4c.3 0 .6-.1.9-.2.9-.5 1.3-1.6.8-2.6-.5-.9-1.6-1.3-2.6-.8-.9.5-1.3 1.6-.8 2.6.4.6 1.1 1 1.7 1z"></path></g></switch></g><!----></svg>